<svg xmlns="http://www.w3.org/2000/svg" width="1200" height="340" viewBox="0 0 1200 340" fill="none" role="img" aria-label="Thomas Hart — Software Engineer, Subsecond Studio">
  <defs>
    <linearGradient id="bg" x1="0" y1="0" x2="0" y2="1">
      <stop offset="0" stop-color="#0E1C2E"/>
      <stop offset="1" stop-color="#091320"/>
    </linearGradient>
    <radialGradient id="glow" cx="50%" cy="58%" r="60%">
      <stop offset="0" stop-color="#B23A48" stop-opacity="0.55"/>
      <stop offset="55%" stop-color="#B23A48" stop-opacity="0.10"/>
      <stop offset="100%" stop-color="#B23A48" stop-opacity="0"/>
    </radialGradient>
    <linearGradient id="sweep" x1="0" y1="0" x2="1" y2="0">
      <stop offset="0" stop-color="#ffffff" stop-opacity="0"/>
      <stop offset="0.5" stop-color="#ffffff" stop-opacity="0.5"/>
      <stop offset="1" stop-color="#ffffff" stop-opacity="0"/>
    </linearGradient>
    <clipPath id="wmclip"><path d="M173.97 121.60L218.72 121.60Q221.69 121.60 223.83 121.07Q225.98 120.54 227.66 120.05Q229.34 119.55 231.06 119.55Q234.16 119.55 235.71 121.07Q237.26 122.59 238.25 126.22L242.48 148.40Q243.01 150.97 242.05 152.59Q241.09 154.20 238.85 154.60Q236.80 155.06 235.22 154.34Q233.63 153.61 232.58 151.43Q228.62 143.51 225.78 139.19Q222.94 134.87 220.47 133.12Q217.99 131.37 214.96 131.37L211.66 131.37L211.66 199.61Q211.66 201.26 212.51 202.28Q213.37 203.31 215.02 203.90L217.53 204.83Q220.90 206.15 220.90 209.64Q220.90 214 215.35 214L177.34 214Q174.50 214 173.14 212.81Q171.79 211.62 171.79 209.64Q171.79 206.15 175.16 204.83L177.73 203.90Q179.45 203.31 180.27 202.28Q181.10 201.26 181.10 199.61L181.10 131.37L177.73 131.37Q174.76 131.37 172.25 133.12Q169.75 134.87 166.94 139.22Q164.14 143.58 160.18 151.43Q159.05 153.61 157.47 154.34Q155.89 155.06 153.84 154.60Q151.66 154.20 150.70 152.59Q149.75 150.97 150.21 148.40L154.43 126.22Q155.42 122.59 156.97 121.07Q158.53 119.55 161.69 119.55Q163.34 119.55 165.03 120.05Q166.71 120.54 168.85 121.07Q171 121.60 173.97 121.60M283.13 120.15L283.13 200.40Q283.13 202.98 283.53 204.03Q283.93 205.09 284.92 205.62L286.24 206.34Q288.41 207.53 288.41 209.84Q288.41 214 283.46 214L254.09 214Q251.52 214 250.36 212.98Q249.21 211.95 249.21 210.11Q249.21 208.85 249.87 207.86Q250.53 206.87 251.98 206.28L253.50 205.62Q254.49 205.16 254.89 204.07Q255.28 202.98 255.28 200.40L255.28 134.80Q255.28 132.69 254.72 131.83Q254.16 130.97 253.04 130.64L251.59 130.18Q250.20 129.72 249.57 128.89Q248.95 128.07 248.95 126.75Q248.95 125.23 249.80 124.31Q250.66 123.38 252.97 122.52L267.89 116.78Q271.19 115.53 273.23 114.93Q275.28 114.34 277.19 114.34Q280.10 114.34 281.62 115.99Q283.13 117.64 283.13 120.15M283.07 168.33L280.76 170.44L276.86 166.28L278.91 164.43Q288.15 155.85 294.72 152.19Q301.28 148.53 306.83 148.53Q315.34 148.53 320.16 154.34Q324.98 160.14 325.84 169.45L328.87 200.40Q329.14 202.98 329.40 204.07Q329.66 205.16 330.59 205.62L332.11 206.28Q333.56 206.87 334.22 207.86Q334.88 208.85 334.88 210.11Q334.88 211.95 333.72 212.98Q332.57 214 329.99 214L300.29 214Q295.34 214 295.34 209.84Q295.34 207.53 297.52 206.34L298.84 205.62Q299.83 205.09 300.36 204.03Q300.89 202.98 300.62 200.40L298.12 173.41Q297.72 169.19 296.10 167.11Q294.49 165.03 291.19 165.03Q289.14 165.03 286.99 165.92Q284.85 166.81 283.07 168.33M377.12 148.53Q388.34 148.53 396.69 152.78Q405.04 157.04 409.66 164.66Q414.28 172.29 414.28 182.45Q414.28 191.82 409.42 199.38Q404.57 206.94 395.99 211.39Q387.41 215.85 376.06 215.85Q364.91 215.85 356.56 211.53Q348.21 207.20 343.56 199.58Q338.90 191.96 338.90 181.92Q338.90 172.35 343.79 164.83Q348.67 157.31 357.25 152.92Q365.83 148.53 377.12 148.53M381.94 206.48Q384.44 205.88 385.76 202.98Q387.08 200.07 386.95 194.50Q386.82 188.92 384.97 180.34Q383.26 172.16 381.11 166.97Q378.97 161.79 376.49 159.52Q374.02 157.24 371.31 157.90Q368.80 158.49 367.48 161.40Q366.16 164.30 366.33 169.85Q366.49 175.39 368.27 184.04Q369.99 192.15 372.13 197.37Q374.28 202.58 376.75 204.83Q379.23 207.07 381.94 206.48M455.33 154.34L455.33 200.40Q455.33 202.98 455.72 204.03Q456.12 205.09 457.11 205.62L458.50 206.34Q460.61 207.53 460.61 209.84Q460.61 214 455.66 214L426.29 214Q423.71 214 422.56 212.98Q421.40 211.95 421.40 210.11Q421.40 208.85 422.06 207.86Q422.72 206.87 424.18 206.28L425.69 205.62Q426.68 205.16 427.08 204.07Q427.48 202.98 427.48 200.40L427.48 168.99Q427.48 166.88 426.91 166.02Q426.35 165.16 425.23 164.83L423.78 164.37Q422.39 163.91 421.77 163.08Q421.14 162.26 421.14 160.94Q421.14 159.42 422 158.49Q422.86 157.57 425.17 156.71L440.08 150.97Q443.38 149.65 445.43 149.09Q447.47 148.53 449.39 148.53Q452.29 148.53 453.81 150.18Q455.33 151.83 455.33 154.34M455.26 168.33L452.95 170.44L449.06 166.28L451.10 164.43Q460.34 155.59 467.04 152.06Q473.74 148.53 479.42 148.53Q488.20 148.53 493.41 154.30Q498.62 160.08 498.62 169.52L498.62 200.40Q498.62 202.98 499.02 204.03Q499.42 205.09 500.41 205.62L501.73 206.34Q503.84 207.53 503.84 209.84Q503.84 214 498.89 214L470.44 214Q465.49 214 465.49 209.84Q465.49 207.53 467.60 206.34L468.99 205.62Q469.98 205.09 470.38 204.03Q470.77 202.98 470.77 200.40L470.77 173.41Q470.77 169.25 468.99 167.14Q467.21 165.03 463.71 165.03Q461.53 165.03 459.32 165.89Q457.11 166.74 455.26 168.33M498.56 168.33L496.25 170.44L492.35 166.28L494.33 164.43Q503.44 155.92 509.84 152.22Q516.25 148.53 521.66 148.53Q530.17 148.53 534.99 154.34Q539.81 160.14 540.67 169.52L543.70 200.40Q543.97 202.98 544.23 204.07Q544.49 205.16 545.48 205.62L546.94 206.28Q548.39 206.87 549.05 207.86Q549.71 208.85 549.71 210.11Q549.71 211.95 548.55 212.98Q547.40 214 544.76 214L515.19 214Q510.24 214 510.24 209.84Q510.24 207.53 512.35 206.34L513.67 205.62Q514.66 205.09 515.19 204.03Q515.72 202.98 515.45 200.40L512.95 173.41Q512.55 169.25 510.93 167.14Q509.32 165.03 505.95 165.03Q504.10 165.03 502.19 165.92Q500.27 166.81 498.56 168.33M594.19 205.02L594.19 203.51L592.08 203.51L592.08 160.74Q592.08 158.23 590.73 156.71Q589.37 155.19 587.06 155.19Q585.35 155.19 584.06 156.02Q582.77 156.84 582.77 158.30L582.77 165.49Q582.77 170.97 579.01 174Q575.25 177.04 568.19 177.04Q562.25 177.04 559.34 174.53Q556.44 172.02 556.44 167.47Q556.44 163.11 560.37 158.79Q564.29 154.47 572.21 151.56Q580.13 148.66 592.15 148.66Q606.07 148.66 612.87 153.78Q619.67 158.89 619.67 167.73L619.67 199.28Q619.67 200.60 620.29 201.39Q620.92 202.19 622.24 202.19Q623.36 202.19 624.06 201.59Q624.75 201 625.34 200.40Q625.81 199.94 626.27 199.61Q626.73 199.28 627.39 199.28Q628.51 199.28 628.97 200.07Q629.44 200.87 629.44 202.12Q629.44 205.02 627.36 208.19Q625.28 211.36 621.09 213.60Q616.90 215.85 610.69 215.85Q603.37 215.85 598.78 212.75Q594.19 209.64 594.19 205.02M554 199.94Q554 190.97 562.15 185.72Q570.30 180.47 585.08 180.47Q588.98 180.47 591.85 181Q594.72 181.53 596.57 182.52L594.32 188.13Q592.94 187.34 591.72 187.01Q590.50 186.68 589.04 186.68Q585.81 186.68 583.93 188.85Q582.05 191.03 582.05 195.12Q582.05 199.41 583.90 201.63Q585.74 203.84 588.78 203.84Q590.69 203.84 592.38 202.94Q594.06 202.05 594.92 200.87L596.50 206.01Q593.33 210.70 587.33 213.27Q581.32 215.85 574.46 215.85Q565.28 215.85 559.64 211.29Q554 206.74 554 199.94M664.68 207.60Q668.44 207.60 670.26 205.95Q672.07 204.30 672.07 201.99Q672.07 200.60 671.54 199.35Q671.02 198.09 669.07 197.07Q667.12 196.05 662.96 195.32Q650.82 193.28 644.42 189.88Q638.02 186.48 635.71 181.82Q633.40 177.17 633.40 171.43Q633.40 160.67 640.85 154.60Q648.31 148.53 662.90 148.53Q667.85 148.53 670.85 149.32Q673.85 150.11 675.67 150.90Q677.48 151.70 678.87 151.70Q680.52 151.70 681.44 150.90Q682.37 150.11 683.36 149.32Q684.35 148.53 686.13 148.53Q687.45 148.53 688.57 149.42Q689.69 150.31 690.35 152.82L693.79 164.70Q694.84 168.06 694.41 170.08Q693.98 172.09 691.94 172.88Q689.83 173.61 688.31 172.91Q686.79 172.22 685.34 170.11Q682.30 165.56 679 162.62Q675.70 159.68 672.10 158.20Q668.51 156.71 664.61 156.71Q660.26 156.71 658.05 158.39Q655.84 160.08 655.84 162.85Q655.84 164.57 656.73 165.85Q657.62 167.14 660.39 168.16Q663.16 169.19 668.64 170.18Q678.28 171.96 683.85 175.16Q689.43 178.36 691.84 183.01Q694.25 187.67 694.25 194Q694.25 200.54 690.72 205.49Q687.19 210.44 681.01 213.14Q674.84 215.85 666.99 215.85Q662.17 215.85 659.37 215.02Q656.56 214.20 654.78 213.37Q653 212.55 651.28 212.55Q649.63 212.55 648.34 213.37Q647.06 214.20 645.84 215.02Q644.62 215.85 643.10 215.85Q641.65 215.85 640.69 214.79Q639.73 213.74 639.27 211.23L637.22 199.74Q636.63 196.44 637.16 194.79Q637.69 193.14 639.47 192.42Q641.45 191.56 643 192.42Q644.55 193.28 646.20 195.59Q650.75 202.19 655.47 204.89Q660.19 207.60 664.68 207.60M754.51 175.13L754.51 165.49L810.28 165.49L810.28 175.13L754.51 175.13M772.26 135.99L772.26 199.61Q772.26 201.26 773.12 202.28Q773.98 203.31 775.63 203.90L778.13 204.83Q781.50 206.15 781.50 209.64Q781.50 211.62 780.15 212.81Q778.79 214 775.96 214L738.01 214Q735.17 214 733.81 212.81Q732.46 211.62 732.46 209.64Q732.46 206.15 735.83 204.83L738.34 203.90Q740.05 203.31 740.88 202.28Q741.70 201.26 741.70 199.61L741.70 135.99Q741.70 134.34 740.88 133.31Q740.05 132.29 738.34 131.70L735.83 130.77Q732.46 129.45 732.46 125.96Q732.46 123.91 733.81 122.75Q735.17 121.60 738.01 121.60L775.96 121.60Q778.79 121.60 780.15 122.75Q781.50 123.91 781.50 125.96Q781.50 129.45 778.13 130.77L775.63 131.70Q773.98 132.29 773.12 133.31Q772.26 134.34 772.26 135.99M830.27 135.99L830.27 199.61Q830.27 201.26 831.13 202.28Q831.99 203.31 833.64 203.90L836.15 204.83Q839.51 206.15 839.51 209.64Q839.51 211.62 838.16 212.81Q836.81 214 833.97 214L795.95 214Q793.12 214 791.76 212.81Q790.41 211.62 790.41 209.64Q790.41 206.15 793.78 204.83L796.35 203.90Q798.07 203.31 798.89 202.28Q799.72 201.26 799.72 199.61L799.72 135.99Q799.72 134.34 798.89 133.31Q798.07 132.29 796.35 131.70L793.78 130.77Q790.41 129.45 790.41 125.96Q790.41 123.91 791.76 122.75Q793.12 121.60 795.95 121.60L833.97 121.60Q836.81 121.60 838.16 122.75Q839.51 123.91 839.51 125.96Q839.51 129.45 836.15 130.77L833.64 131.70Q831.99 132.29 831.13 133.31Q830.27 134.34 830.27 135.99M889.15 205.02L889.15 203.51L887.03 203.51L887.03 160.74Q887.03 158.23 885.68 156.71Q884.33 155.19 882.02 155.19Q880.30 155.19 879.01 156.02Q877.73 156.84 877.73 158.30L877.73 165.49Q877.73 170.97 873.97 174Q870.20 177.04 863.14 177.04Q857.20 177.04 854.30 174.53Q851.39 172.02 851.39 167.47Q851.39 163.11 855.32 158.79Q859.25 154.47 867.17 151.56Q875.09 148.66 887.10 148.66Q901.03 148.66 907.82 153.78Q914.62 158.89 914.62 167.73L914.62 199.28Q914.62 200.60 915.25 201.39Q915.88 202.19 917.20 202.19Q918.32 202.19 919.01 201.59Q919.70 201 920.30 200.40Q920.76 199.94 921.22 199.61Q921.68 199.28 922.34 199.28Q923.47 199.28 923.93 200.07Q924.39 200.87 924.39 202.12Q924.39 205.02 922.31 208.19Q920.23 211.36 916.04 213.60Q911.85 215.85 905.65 215.85Q898.32 215.85 893.73 212.75Q889.15 209.64 889.15 205.02M848.95 199.94Q848.95 190.97 857.10 185.72Q865.25 180.47 880.04 180.47Q883.93 180.47 886.80 181Q889.67 181.53 891.52 182.52L889.28 188.13Q887.89 187.34 886.67 187.01Q885.45 186.68 884 186.68Q880.76 186.68 878.88 188.85Q877 191.03 877 195.12Q877 199.41 878.85 201.63Q880.70 203.84 883.73 203.84Q885.65 203.84 887.33 202.94Q889.01 202.05 889.87 200.87L891.46 206.01Q888.29 210.70 882.28 213.27Q876.28 215.85 869.41 215.85Q860.24 215.85 854.59 211.29Q848.95 206.74 848.95 199.94M962.14 176.97L959.63 177.96Q959.63 167.93 962.27 161.40Q964.91 154.86 969.27 151.70Q973.63 148.53 978.84 148.53Q985.84 148.53 989.53 152.72Q993.23 156.91 993.23 165.29Q993.23 173.87 989.76 177.96Q986.30 182.06 980.75 182.06Q975.14 182.06 972.37 179.19Q969.60 176.31 969.60 171.23L969.60 168.46Q969.53 166.81 968.84 165.89Q968.15 164.96 966.70 164.96Q965.38 164.96 964.35 166.15Q963.33 167.34 962.74 169.94Q962.14 172.55 962.14 176.97M960.36 154.34L962.14 168.33L962.14 200.40Q962.14 202.65 962.80 203.60Q963.46 204.56 965.77 205.02L970.85 206.01Q972.77 206.41 973.69 207.37Q974.62 208.32 974.62 210.04Q974.62 211.95 973.36 212.98Q972.11 214 969.60 214L933.17 214Q930.53 214 929.37 212.98Q928.22 211.95 928.22 210.11Q928.22 208.85 928.88 207.86Q929.54 206.87 930.99 206.28L932.51 205.62Q933.50 205.16 933.89 204.07Q934.29 202.98 934.29 200.40L934.29 169.19Q934.29 167.14 933.73 166.25Q933.17 165.36 932.05 165.03L930.59 164.63Q929.21 164.17 928.58 163.31Q927.95 162.45 927.95 161.20Q927.95 159.62 928.84 158.69Q929.74 157.77 931.98 156.91L946.43 151.37Q951.05 149.58 953.03 149.06Q955.01 148.53 956.14 148.53Q957.98 148.53 958.94 149.85Q959.90 151.17 960.36 154.34M1001.08 158.89L998.84 158.03Q997.45 157.44 996.73 156.55Q996 155.66 996 154.34Q996 152.49 997.25 151.50Q998.51 150.51 1000.55 150.51L1004.18 150.51Q1005.44 150.51 1006.49 149.85Q1007.55 149.19 1009.27 147.54L1020.22 136.58Q1022.33 134.40 1024.18 133.38Q1026.03 132.36 1027.75 132.36Q1029.59 132.36 1030.68 133.58Q1031.77 134.80 1031.77 137.18L1031.77 190.11Q1031.77 194.93 1033.42 197.47Q1035.07 200.01 1038.17 200.01Q1040.68 200.01 1042.03 198.75Q1043.39 197.50 1044.21 195.92Q1045.04 194.33 1045.93 193.08Q1046.82 191.82 1048.40 191.76Q1049.72 191.69 1050.48 192.62Q1051.24 193.54 1051.24 195.72Q1051.24 201.33 1048.04 205.88Q1044.84 210.44 1039.20 213.14Q1033.55 215.85 1026.36 215.85Q1015.60 215.85 1009.76 210.67Q1003.92 205.49 1003.92 195.06L1003.92 163.11Q1003.92 161.27 1003.23 160.41Q1002.53 159.55 1001.08 158.89M1040.35 159.68L1022.20 159.68L1022.20 150.51L1046.23 150.51Q1048.21 150.51 1049.43 151.37Q1050.65 152.22 1050.65 153.87Q1050.65 156.32 1048.24 158Q1045.83 159.68 1040.35 159.68"/></clipPath>
  </defs>

  <rect width="1200" height="340" rx="18" fill="url(#bg)"/>

  <!-- claret glow, gently pulsing -->
  <ellipse cx="600" cy="200" rx="440" ry="150" fill="url(#glow)" opacity="0.55">
    <animate attributeName="opacity" values="0.45;0.72;0.45" dur="5s" repeatCount="indefinite"/>
  </ellipse>

  <!-- faint hairline frame -->
  <rect x="0.5" y="0.5" width="1199" height="339" rx="18" fill="none" stroke="#ffffff" stroke-opacity="0.06"/>

  <!-- eyebrow -->
  <text x="600" y="88" text-anchor="middle" fill="#8FA1B6"
        font-family="ui-monospace,SFMono-Regular,Menlo,monospace" font-size="19" letter-spacing="7">SOFTWARE ENGINEER  ·  SUBSECOND STUDIO</text>

  <!-- wordmark (Fraunces Black, baked to paths); a light sweep runs across the letters -->
  <path d="M173.97 121.60L218.72 121.60Q221.69 121.60 223.83 121.07Q225.98 120.54 227.66 120.05Q229.34 119.55 231.06 119.55Q234.16 119.55 235.71 121.07Q237.26 122.59 238.25 126.22L242.48 148.40Q243.01 150.97 242.05 152.59Q241.09 154.20 238.85 154.60Q236.80 155.06 235.22 154.34Q233.63 153.61 232.58 151.43Q228.62 143.51 225.78 139.19Q222.94 134.87 220.47 133.12Q217.99 131.37 214.96 131.37L211.66 131.37L211.66 199.61Q211.66 201.26 212.51 202.28Q213.37 203.31 215.02 203.90L217.53 204.83Q220.90 206.15 220.90 209.64Q220.90 214 215.35 214L177.34 214Q174.50 214 173.14 212.81Q171.79 211.62 171.79 209.64Q171.79 206.15 175.16 204.83L177.73 203.90Q179.45 203.31 180.27 202.28Q181.10 201.26 181.10 199.61L181.10 131.37L177.73 131.37Q174.76 131.37 172.25 133.12Q169.75 134.87 166.94 139.22Q164.14 143.58 160.18 151.43Q159.05 153.61 157.47 154.34Q155.89 155.06 153.84 154.60Q151.66 154.20 150.70 152.59Q149.75 150.97 150.21 148.40L154.43 126.22Q155.42 122.59 156.97 121.07Q158.53 119.55 161.69 119.55Q163.34 119.55 165.03 120.05Q166.71 120.54 168.85 121.07Q171 121.60 173.97 121.60M283.13 120.15L283.13 200.40Q283.13 202.98 283.53 204.03Q283.93 205.09 284.92 205.62L286.24 206.34Q288.41 207.53 288.41 209.84Q288.41 214 283.46 214L254.09 214Q251.52 214 250.36 212.98Q249.21 211.95 249.21 210.11Q249.21 208.85 249.87 207.86Q250.53 206.87 251.98 206.28L253.50 205.62Q254.49 205.16 254.89 204.07Q255.28 202.98 255.28 200.40L255.28 134.80Q255.28 132.69 254.72 131.83Q254.16 130.97 253.04 130.64L251.59 130.18Q250.20 129.72 249.57 128.89Q248.95 128.07 248.95 126.75Q248.95 125.23 249.80 124.31Q250.66 123.38 252.97 122.52L267.89 116.78Q271.19 115.53 273.23 114.93Q275.28 114.34 277.19 114.34Q280.10 114.34 281.62 115.99Q283.13 117.64 283.13 120.15M283.07 168.33L280.76 170.44L276.86 166.28L278.91 164.43Q288.15 155.85 294.72 152.19Q301.28 148.53 306.83 148.53Q315.34 148.53 320.16 154.34Q324.98 160.14 325.84 169.45L328.87 200.40Q329.14 202.98 329.40 204.07Q329.66 205.16 330.59 205.62L332.11 206.28Q333.56 206.87 334.22 207.86Q334.88 208.85 334.88 210.11Q334.88 211.95 333.72 212.98Q332.57 214 329.99 214L300.29 214Q295.34 214 295.34 209.84Q295.34 207.53 297.52 206.34L298.84 205.62Q299.83 205.09 300.36 204.03Q300.89 202.98 300.62 200.40L298.12 173.41Q297.72 169.19 296.10 167.11Q294.49 165.03 291.19 165.03Q289.14 165.03 286.99 165.92Q284.85 166.81 283.07 168.33M377.12 148.53Q388.34 148.53 396.69 152.78Q405.04 157.04 409.66 164.66Q414.28 172.29 414.28 182.45Q414.28 191.82 409.42 199.38Q404.57 206.94 395.99 211.39Q387.41 215.85 376.06 215.85Q364.91 215.85 356.56 211.53Q348.21 207.20 343.56 199.58Q338.90 191.96 338.90 181.92Q338.90 172.35 343.79 164.83Q348.67 157.31 357.25 152.92Q365.83 148.53 377.12 148.53M381.94 206.48Q384.44 205.88 385.76 202.98Q387.08 200.07 386.95 194.50Q386.82 188.92 384.97 180.34Q383.26 172.16 381.11 166.97Q378.97 161.79 376.49 159.52Q374.02 157.24 371.31 157.90Q368.80 158.49 367.48 161.40Q366.16 164.30 366.33 169.85Q366.49 175.39 368.27 184.04Q369.99 192.15 372.13 197.37Q374.28 202.58 376.75 204.83Q379.23 207.07 381.94 206.48M455.33 154.34L455.33 200.40Q455.33 202.98 455.72 204.03Q456.12 205.09 457.11 205.62L458.50 206.34Q460.61 207.53 460.61 209.84Q460.61 214 455.66 214L426.29 214Q423.71 214 422.56 212.98Q421.40 211.95 421.40 210.11Q421.40 208.85 422.06 207.86Q422.72 206.87 424.18 206.28L425.69 205.62Q426.68 205.16 427.08 204.07Q427.48 202.98 427.48 200.40L427.48 168.99Q427.48 166.88 426.91 166.02Q426.35 165.16 425.23 164.83L423.78 164.37Q422.39 163.91 421.77 163.08Q421.14 162.26 421.14 160.94Q421.14 159.42 422 158.49Q422.86 157.57 425.17 156.71L440.08 150.97Q443.38 149.65 445.43 149.09Q447.47 148.53 449.39 148.53Q452.29 148.53 453.81 150.18Q455.33 151.83 455.33 154.34M455.26 168.33L452.95 170.44L449.06 166.28L451.10 164.43Q460.34 155.59 467.04 152.06Q473.74 148.53 479.42 148.53Q488.20 148.53 493.41 154.30Q498.62 160.08 498.62 169.52L498.62 200.40Q498.62 202.98 499.02 204.03Q499.42 205.09 500.41 205.62L501.73 206.34Q503.84 207.53 503.84 209.84Q503.84 214 498.89 214L470.44 214Q465.49 214 465.49 209.84Q465.49 207.53 467.60 206.34L468.99 205.62Q469.98 205.09 470.38 204.03Q470.77 202.98 470.77 200.40L470.77 173.41Q470.77 169.25 468.99 167.14Q467.21 165.03 463.71 165.03Q461.53 165.03 459.32 165.89Q457.11 166.74 455.26 168.33M498.56 168.33L496.25 170.44L492.35 166.28L494.33 164.43Q503.44 155.92 509.84 152.22Q516.25 148.53 521.66 148.53Q530.17 148.53 534.99 154.34Q539.81 160.14 540.67 169.52L543.70 200.40Q543.97 202.98 544.23 204.07Q544.49 205.16 545.48 205.62L546.94 206.28Q548.39 206.87 549.05 207.86Q549.71 208.85 549.71 210.11Q549.71 211.95 548.55 212.98Q547.40 214 544.76 214L515.19 214Q510.24 214 510.24 209.84Q510.24 207.53 512.35 206.34L513.67 205.62Q514.66 205.09 515.19 204.03Q515.72 202.98 515.45 200.40L512.95 173.41Q512.55 169.25 510.93 167.14Q509.32 165.03 505.95 165.03Q504.10 165.03 502.19 165.92Q500.27 166.81 498.56 168.33M594.19 205.02L594.19 203.51L592.08 203.51L592.08 160.74Q592.08 158.23 590.73 156.71Q589.37 155.19 587.06 155.19Q585.35 155.19 584.06 156.02Q582.77 156.84 582.77 158.30L582.77 165.49Q582.77 170.97 579.01 174Q575.25 177.04 568.19 177.04Q562.25 177.04 559.34 174.53Q556.44 172.02 556.44 167.47Q556.44 163.11 560.37 158.79Q564.29 154.47 572.21 151.56Q580.13 148.66 592.15 148.66Q606.07 148.66 612.87 153.78Q619.67 158.89 619.67 167.73L619.67 199.28Q619.67 200.60 620.29 201.39Q620.92 202.19 622.24 202.19Q623.36 202.19 624.06 201.59Q624.75 201 625.34 200.40Q625.81 199.94 626.27 199.61Q626.73 199.28 627.39 199.28Q628.51 199.28 628.97 200.07Q629.44 200.87 629.44 202.12Q629.44 205.02 627.36 208.19Q625.28 211.36 621.09 213.60Q616.90 215.85 610.69 215.85Q603.37 215.85 598.78 212.75Q594.19 209.64 594.19 205.02M554 199.94Q554 190.97 562.15 185.72Q570.30 180.47 585.08 180.47Q588.98 180.47 591.85 181Q594.72 181.53 596.57 182.52L594.32 188.13Q592.94 187.34 591.72 187.01Q590.50 186.68 589.04 186.68Q585.81 186.68 583.93 188.85Q582.05 191.03 582.05 195.12Q582.05 199.41 583.90 201.63Q585.74 203.84 588.78 203.84Q590.69 203.84 592.38 202.94Q594.06 202.05 594.92 200.87L596.50 206.01Q593.33 210.70 587.33 213.27Q581.32 215.85 574.46 215.85Q565.28 215.85 559.64 211.29Q554 206.74 554 199.94M664.68 207.60Q668.44 207.60 670.26 205.95Q672.07 204.30 672.07 201.99Q672.07 200.60 671.54 199.35Q671.02 198.09 669.07 197.07Q667.12 196.05 662.96 195.32Q650.82 193.28 644.42 189.88Q638.02 186.48 635.71 181.82Q633.40 177.17 633.40 171.43Q633.40 160.67 640.85 154.60Q648.31 148.53 662.90 148.53Q667.85 148.53 670.85 149.32Q673.85 150.11 675.67 150.90Q677.48 151.70 678.87 151.70Q680.52 151.70 681.44 150.90Q682.37 150.11 683.36 149.32Q684.35 148.53 686.13 148.53Q687.45 148.53 688.57 149.42Q689.69 150.31 690.35 152.82L693.79 164.70Q694.84 168.06 694.41 170.08Q693.98 172.09 691.94 172.88Q689.83 173.61 688.31 172.91Q686.79 172.22 685.34 170.11Q682.30 165.56 679 162.62Q675.70 159.68 672.10 158.20Q668.51 156.71 664.61 156.71Q660.26 156.71 658.05 158.39Q655.84 160.08 655.84 162.85Q655.84 164.57 656.73 165.85Q657.62 167.14 660.39 168.16Q663.16 169.19 668.64 170.18Q678.28 171.96 683.85 175.16Q689.43 178.36 691.84 183.01Q694.25 187.67 694.25 194Q694.25 200.54 690.72 205.49Q687.19 210.44 681.01 213.14Q674.84 215.85 666.99 215.85Q662.17 215.85 659.37 215.02Q656.56 214.20 654.78 213.37Q653 212.55 651.28 212.55Q649.63 212.55 648.34 213.37Q647.06 214.20 645.84 215.02Q644.62 215.85 643.10 215.85Q641.65 215.85 640.69 214.79Q639.73 213.74 639.27 211.23L637.22 199.74Q636.63 196.44 637.16 194.79Q637.69 193.14 639.47 192.42Q641.45 191.56 643 192.42Q644.55 193.28 646.20 195.59Q650.75 202.19 655.47 204.89Q660.19 207.60 664.68 207.60M754.51 175.13L754.51 165.49L810.28 165.49L810.28 175.13L754.51 175.13M772.26 135.99L772.26 199.61Q772.26 201.26 773.12 202.28Q773.98 203.31 775.63 203.90L778.13 204.83Q781.50 206.15 781.50 209.64Q781.50 211.62 780.15 212.81Q778.79 214 775.96 214L738.01 214Q735.17 214 733.81 212.81Q732.46 211.62 732.46 209.64Q732.46 206.15 735.83 204.83L738.34 203.90Q740.05 203.31 740.88 202.28Q741.70 201.26 741.70 199.61L741.70 135.99Q741.70 134.34 740.88 133.31Q740.05 132.29 738.34 131.70L735.83 130.77Q732.46 129.45 732.46 125.96Q732.46 123.91 733.81 122.75Q735.17 121.60 738.01 121.60L775.96 121.60Q778.79 121.60 780.15 122.75Q781.50 123.91 781.50 125.96Q781.50 129.45 778.13 130.77L775.63 131.70Q773.98 132.29 773.12 133.31Q772.26 134.34 772.26 135.99M830.27 135.99L830.27 199.61Q830.27 201.26 831.13 202.28Q831.99 203.31 833.64 203.90L836.15 204.83Q839.51 206.15 839.51 209.64Q839.51 211.62 838.16 212.81Q836.81 214 833.97 214L795.95 214Q793.12 214 791.76 212.81Q790.41 211.62 790.41 209.64Q790.41 206.15 793.78 204.83L796.35 203.90Q798.07 203.31 798.89 202.28Q799.72 201.26 799.72 199.61L799.72 135.99Q799.72 134.34 798.89 133.31Q798.07 132.29 796.35 131.70L793.78 130.77Q790.41 129.45 790.41 125.96Q790.41 123.91 791.76 122.75Q793.12 121.60 795.95 121.60L833.97 121.60Q836.81 121.60 838.16 122.75Q839.51 123.91 839.51 125.96Q839.51 129.45 836.15 130.77L833.64 131.70Q831.99 132.29 831.13 133.31Q830.27 134.34 830.27 135.99M889.15 205.02L889.15 203.51L887.03 203.51L887.03 160.74Q887.03 158.23 885.68 156.71Q884.33 155.19 882.02 155.19Q880.30 155.19 879.01 156.02Q877.73 156.84 877.73 158.30L877.73 165.49Q877.73 170.97 873.97 174Q870.20 177.04 863.14 177.04Q857.20 177.04 854.30 174.53Q851.39 172.02 851.39 167.47Q851.39 163.11 855.32 158.79Q859.25 154.47 867.17 151.56Q875.09 148.66 887.10 148.66Q901.03 148.66 907.82 153.78Q914.62 158.89 914.62 167.73L914.62 199.28Q914.62 200.60 915.25 201.39Q915.88 202.19 917.20 202.19Q918.32 202.19 919.01 201.59Q919.70 201 920.30 200.40Q920.76 199.94 921.22 199.61Q921.68 199.28 922.34 199.28Q923.47 199.28 923.93 200.07Q924.39 200.87 924.39 202.12Q924.39 205.02 922.31 208.19Q920.23 211.36 916.04 213.60Q911.85 215.85 905.65 215.85Q898.32 215.85 893.73 212.75Q889.15 209.64 889.15 205.02M848.95 199.94Q848.95 190.97 857.10 185.72Q865.25 180.47 880.04 180.47Q883.93 180.47 886.80 181Q889.67 181.53 891.52 182.52L889.28 188.13Q887.89 187.34 886.67 187.01Q885.45 186.68 884 186.68Q880.76 186.68 878.88 188.85Q877 191.03 877 195.12Q877 199.41 878.85 201.63Q880.70 203.84 883.73 203.84Q885.65 203.84 887.33 202.94Q889.01 202.05 889.87 200.87L891.46 206.01Q888.29 210.70 882.28 213.27Q876.28 215.85 869.41 215.85Q860.24 215.85 854.59 211.29Q848.95 206.74 848.95 199.94M962.14 176.97L959.63 177.96Q959.63 167.93 962.27 161.40Q964.91 154.86 969.27 151.70Q973.63 148.53 978.84 148.53Q985.84 148.53 989.53 152.72Q993.23 156.91 993.23 165.29Q993.23 173.87 989.76 177.96Q986.30 182.06 980.75 182.06Q975.14 182.06 972.37 179.19Q969.60 176.31 969.60 171.23L969.60 168.46Q969.53 166.81 968.84 165.89Q968.15 164.96 966.70 164.96Q965.38 164.96 964.35 166.15Q963.33 167.34 962.74 169.94Q962.14 172.55 962.14 176.97M960.36 154.34L962.14 168.33L962.14 200.40Q962.14 202.65 962.80 203.60Q963.46 204.56 965.77 205.02L970.85 206.01Q972.77 206.41 973.69 207.37Q974.62 208.32 974.62 210.04Q974.62 211.95 973.36 212.98Q972.11 214 969.60 214L933.17 214Q930.53 214 929.37 212.98Q928.22 211.95 928.22 210.11Q928.22 208.85 928.88 207.86Q929.54 206.87 930.99 206.28L932.51 205.62Q933.50 205.16 933.89 204.07Q934.29 202.98 934.29 200.40L934.29 169.19Q934.29 167.14 933.73 166.25Q933.17 165.36 932.05 165.03L930.59 164.63Q929.21 164.17 928.58 163.31Q927.95 162.45 927.95 161.20Q927.95 159.62 928.84 158.69Q929.74 157.77 931.98 156.91L946.43 151.37Q951.05 149.58 953.03 149.06Q955.01 148.53 956.14 148.53Q957.98 148.53 958.94 149.85Q959.90 151.17 960.36 154.34M1001.08 158.89L998.84 158.03Q997.45 157.44 996.73 156.55Q996 155.66 996 154.34Q996 152.49 997.25 151.50Q998.51 150.51 1000.55 150.51L1004.18 150.51Q1005.44 150.51 1006.49 149.85Q1007.55 149.19 1009.27 147.54L1020.22 136.58Q1022.33 134.40 1024.18 133.38Q1026.03 132.36 1027.75 132.36Q1029.59 132.36 1030.68 133.58Q1031.77 134.80 1031.77 137.18L1031.77 190.11Q1031.77 194.93 1033.42 197.47Q1035.07 200.01 1038.17 200.01Q1040.68 200.01 1042.03 198.75Q1043.39 197.50 1044.21 195.92Q1045.04 194.33 1045.93 193.08Q1046.82 191.82 1048.40 191.76Q1049.72 191.69 1050.48 192.62Q1051.24 193.54 1051.24 195.72Q1051.24 201.33 1048.04 205.88Q1044.84 210.44 1039.20 213.14Q1033.55 215.85 1026.36 215.85Q1015.60 215.85 1009.76 210.67Q1003.92 205.49 1003.92 195.06L1003.92 163.11Q1003.92 161.27 1003.23 160.41Q1002.53 159.55 1001.08 158.89M1040.35 159.68L1022.20 159.68L1022.20 150.51L1046.23 150.51Q1048.21 150.51 1049.43 151.37Q1050.65 152.22 1050.65 153.87Q1050.65 156.32 1048.24 158Q1045.83 159.68 1040.35 159.68" fill="#F3EDE3"/>
  <g clip-path="url(#wmclip)">
    <rect x="-113" y="90" width="200" height="150" fill="url(#sweep)">
      <animate attributeName="x" from="-113" to="1113"
               dur="4.5s" begin="1s;click+0.2s" repeatCount="indefinite"/>
    </rect>
  </g>

  <!-- underline draws once, then a claret dot keeps running its length -->
  <line x1="143.2" y1="236" x2="1056.8" y2="236"
        stroke="#B23A48" stroke-width="4" stroke-linecap="round"
        stroke-dasharray="913.5" stroke-dashoffset="0">
    <animate attributeName="stroke-dashoffset" from="913.5" to="0"
             dur="1.1s" begin="0.4s" fill="freeze"/>
  </line>
  <circle cx="143.2" cy="236" r="5" fill="#D2586A">
    <animate attributeName="cx" values="143.2;1056.8;143.2"
             dur="3.6s" begin="1.5s" repeatCount="indefinite"/>
    <animate attributeName="opacity" values="0;1;1;1;0" dur="3.6s" begin="1.5s" repeatCount="indefinite"/>
  </circle>

  <!-- tagline -->
  <text x="600" y="292" text-anchor="middle" fill="#8FA1B6"
        font-family="ui-monospace,SFMono-Regular,Menlo,monospace" font-size="20" letter-spacing="1.5">Full-stack web · Next.js · TypeScript · Postgres · I ship, then I prove it.</text>
</svg>
